<svg xmlns="http://www.w3.org/2000/svg" viewBox="0 11.569999694824219 653.0499877929688 49.01000213623047" data-asc="0.99" width="653.0499877929688" height="49.01000213623047"><defs/><g fill="#8b5cf6"><g transform="translate(0, 0)"><path d="M8.20 20.70L8.20 29.02L20.20 29.02L20.20 34.77L8.20 34.77L8.20 43.63L22.68 43.63L22.68 49.50L0 49.50L0 14.85L22.65 14.85L21.83 20.70L8.20 20.70ZM48.48 22.07Q50.38 22.07 51.60 22.88Q52.83 23.67 53.43 25.39Q54.03 27.10 54.03 29.85L54.03 49.50L47.25 49.50L47.25 30.75Q47.25 29.35 46.99 28.77Q46.73 28.20 45.93 28.20Q45.30 28.20 44.64 28.56Q43.98 28.92 43.17 29.92L43.17 49.50L37.63 49.50L37.63 30.75Q37.63 29.35 37.36 28.77Q37.10 28.20 36.30 28.20Q35.68 28.20 35.01 28.56Q34.35 28.92 33.55 29.92L33.55 49.50L26.68 49.50L26.68 22.95L32.48 22.95L33 25.52Q34.25 23.82 35.53 22.95Q36.80 22.07 38.55 22.07Q40.05 22.07 41.11 22.84Q42.17 23.60 42.63 25.22Q43.83 23.82 45.28 22.95Q46.73 22.07 48.48 22.07ZM78.47 22.07Q80.38 22.07 81.60 22.88Q82.83 23.67 83.43 25.39Q84.03 27.10 84.03 29.85L84.03 49.50L77.25 49.50L77.25 30.75Q77.25 29.35 76.99 28.77Q76.72 28.20 75.93 28.20Q75.30 28.20 74.64 28.56Q73.97 28.92 73.17 29.92L73.17 49.50L67.63 49.50L67.63 30.75Q67.63 29.35 67.36 28.77Q67.10 28.20 66.30 28.20Q65.67 28.20 65.01 28.56Q64.35 28.92 63.55 29.92L63.55 49.50L56.68 49.50L56.68 22.95L62.48 22.95L63 25.52Q64.25 23.82 65.53 22.95Q66.80 22.07 68.55 22.07Q70.05 22.07 71.11 22.84Q72.17 23.60 72.63 25.22Q73.83 23.82 75.28 22.95Q76.72 22.07 78.47 22.07ZM111.20 41.85Q111.20 43.35 111.61 44.02Q112.02 44.70 112.95 45.05L111.32 50.25Q108.97 50.02 107.36 49.21Q105.75 48.40 104.82 46.75Q103.30 48.58 100.92 49.46Q98.55 50.35 96.07 50.35Q91.97 50.35 89.54 48.01Q87.10 45.67 87.10 42Q87.10 37.67 90.49 35.33Q93.88 32.97 100.02 32.97L103.60 32.97L103.60 31.97Q103.60 29.90 102.26 28.90Q100.92 27.90 98.35 27.90Q97.07 27.90 95.07 28.26Q93.07 28.63 91.07 29.30L89.25 24.05Q91.82 23.07 94.61 22.57Q97.40 22.07 99.60 22.07Q105.52 22.07 108.36 24.49Q111.20 26.90 111.20 31.45L111.20 41.85M98.80 44.70Q100.07 44.70 101.47 43.94Q102.88 43.17 103.60 41.77L103.60 37.48L101.65 37.48Q98.35 37.48 96.80 38.49Q95.25 39.50 95.25 41.45Q95.25 42.98 96.19 43.84Q97.13 44.70 98.80 44.70ZM118.85 49.50L118.85 22.95L125.75 22.95L126.30 26.02Q128.07 24.02 130.05 23.05Q132.03 22.07 134.55 22.07Q137.95 22.07 139.90 24.15Q141.85 26.22 141.85 30L141.85 49.50L133.95 49.50L133.95 32.27Q133.95 30.65 133.72 29.69Q133.50 28.72 132.94 28.31Q132.38 27.90 131.40 27.90Q130.57 27.90 129.79 28.26Q129 28.63 128.25 29.30Q127.50 29.97 126.75 30.93L126.75 49.50L118.85 49.50ZM156.75 22.95L156.75 41.13Q156.75 43.05 157.46 43.77Q158.17 44.50 159.45 44.50Q160.67 44.50 161.90 43.73Q163.13 42.95 163.95 41.63L163.95 22.95L171.85 22.95L171.85 49.50L164.95 49.50L164.60 46.40Q163.25 48.35 161.05 49.35Q158.85 50.35 156.45 50.35Q152.60 50.35 150.72 48.11Q148.85 45.88 148.85 42.10L148.85 22.95L156.75 22.95ZM185.70 38.52Q185.97 40.70 186.84 42.04Q187.70 43.38 189.05 43.99Q190.40 44.60 192.07 44.60Q193.90 44.60 195.60 44Q197.30 43.40 198.88 42.40L202.05 46.70Q200.18 48.30 197.51 49.33Q194.85 50.35 191.45 50.35Q186.90 50.35 183.82 48.54Q180.75 46.73 179.20 43.55Q177.65 40.38 177.65 36.25Q177.65 32.33 179.15 29.11Q180.65 25.90 183.54 23.99Q186.42 22.07 190.60 22.07Q194.40 22.07 197.19 23.70Q199.97 25.32 201.51 28.38Q203.05 31.43 203.05 35.70Q203.05 36.38 203.01 37.15Q202.97 37.92 202.90 38.52L185.70 38.52M190.60 27.38Q188.47 27.38 187.17 28.90Q185.88 30.43 185.60 33.77L195.35 33.77Q195.32 30.88 194.22 29.13Q193.13 27.38 190.60 27.38ZM222.70 12.40L222.70 41.15Q222.70 42.75 223.61 43.44Q224.53 44.13 226.13 44.13Q227.15 44.13 228.10 43.89Q229.05 43.65 229.88 43.33L231.78 48.60Q230.43 49.30 228.53 49.83Q226.63 50.35 224.10 50.35Q219.30 50.35 217.05 47.59Q214.80 44.83 214.80 40.17L214.80 17.80L206.97 17.80L206.97 12.40L222.70 12.40ZM292.53 14.85L294.48 49.50L287.33 49.50L286.90 34.67Q286.85 32.60 286.86 30.97Q286.88 29.35 286.93 27.91Q286.98 26.47 287.09 25.01Q287.20 23.55 287.33 21.82L283.43 43.60L277.23 43.60L273.03 21.82Q273.18 23.47 273.29 24.94Q273.40 26.40 273.45 27.88Q273.50 29.35 273.53 31.04Q273.55 32.72 273.50 34.80L273.25 49.50L266.23 49.50L268.18 14.85L276.60 14.85L280.45 37.25L284.10 14.85L292.53 14.85ZM321.20 41.85Q321.20 43.35 321.61 44.02Q322.03 44.70 322.95 45.05L321.33 50.25Q318.98 50.02 317.36 49.21Q315.75 48.40 314.83 46.75Q313.30 48.58 310.93 49.46Q308.55 50.35 306.08 50.35Q301.98 50.35 299.54 48.01Q297.10 45.67 297.10 42Q297.10 37.67 300.49 35.33Q303.88 32.97 310.03 32.97L313.60 32.97L313.60 31.97Q313.60 29.90 312.26 28.90Q310.93 27.90 308.35 27.90Q307.08 27.90 305.08 28.26Q303.08 28.63 301.08 29.30L299.25 24.05Q301.83 23.07 304.61 22.57Q307.40 22.07 309.60 22.07Q315.53 22.07 318.36 24.49Q321.20 26.90 321.20 31.45L321.20 41.85M308.80 44.70Q310.08 44.70 311.48 43.94Q312.88 43.17 313.60 41.77L313.60 37.48L311.65 37.48Q308.35 37.48 306.80 38.49Q305.25 39.50 305.25 41.45Q305.25 42.98 306.19 43.84Q307.13 44.70 308.80 44.70ZM343.95 11.57L351.85 12.40L351.85 49.50L344.85 49.50L344.45 46.58Q343.35 48.13 341.53 49.24Q339.70 50.35 337.10 50.35Q333.80 50.35 331.64 48.58Q329.48 46.80 328.41 43.61Q327.35 40.42 327.35 36.15Q327.35 32.05 328.63 28.88Q329.90 25.70 332.28 23.89Q334.65 22.07 337.93 22.07Q339.70 22.07 341.23 22.70Q342.75 23.32 343.95 24.52L343.95 11.57M340.05 27.85Q338 27.85 336.75 29.79Q335.50 31.72 335.50 36.20Q335.50 39.48 336.03 41.29Q336.55 43.10 337.48 43.83Q338.40 44.55 339.60 44.55Q340.93 44.55 342.01 43.73Q343.10 42.90 343.95 41.48L343.95 30.02Q343.13 29 342.20 28.42Q341.28 27.85 340.05 27.85ZM366.75 22.95L366.75 41.13Q366.75 43.05 367.46 43.77Q368.18 44.50 369.45 44.50Q370.68 44.50 371.90 43.73Q373.13 42.95 373.95 41.63L373.95 22.95L381.85 22.95L381.85 49.50L374.95 49.50L374.60 46.40Q373.25 48.35 371.05 49.35Q368.85 50.35 366.45 50.35Q362.60 50.35 360.73 48.11Q358.85 45.88 358.85 42.10L358.85 22.95L366.75 22.95ZM414.05 22.95L405.33 34.70L414.78 49.50L405.78 49.50L397.05 34.95L405.78 22.95L414.05 22.95M396.75 11.57L396.75 49.50L388.85 49.50L388.85 12.40L396.75 11.57ZM441.20 41.85Q441.20 43.35 441.61 44.02Q442.03 44.70 442.95 45.05L441.33 50.25Q438.98 50.02 437.36 49.21Q435.75 48.40 434.83 46.75Q433.30 48.58 430.93 49.46Q428.55 50.35 426.08 50.35Q421.98 50.35 419.54 48.01Q417.10 45.67 417.10 42Q417.10 37.67 420.49 35.33Q423.88 32.97 430.03 32.97L433.60 32.97L433.60 31.97Q433.60 29.90 432.26 28.90Q430.93 27.90 428.35 27.90Q427.08 27.90 425.08 28.26Q423.08 28.63 421.08 29.30L419.25 24.05Q421.83 23.07 424.61 22.57Q427.40 22.07 429.60 22.07Q435.53 22.07 438.36 24.49Q441.20 26.90 441.20 31.45L441.20 41.85M428.80 44.70Q430.08 44.70 431.48 43.94Q432.88 43.17 433.60 41.77L433.60 37.48L431.65 37.48Q428.35 37.48 426.80 38.49Q425.25 39.50 425.25 41.45Q425.25 42.98 426.19 43.84Q427.13 44.70 428.80 44.70ZM495.35 42.02L485.20 42.02L483.38 49.50L474.80 49.50L485.40 14.85L495.35 14.85L505.95 49.50L497.18 49.50L495.35 42.02M486.50 36.08L494 36.08L490.25 20.75L486.50 36.08ZM532.43 18.70L534.27 24.50Q532.88 25.05 531 25.30Q529.13 25.55 526.63 25.55Q529.13 26.63 530.44 28.21Q531.75 29.80 531.75 32.38Q531.75 34.95 530.38 36.96Q529 38.98 526.48 40.13Q523.95 41.27 520.50 41.27Q519.65 41.27 518.90 41.20Q518.15 41.13 517.43 40.98Q517 41.20 516.77 41.63Q516.55 42.05 516.55 42.50Q516.55 43.13 517.06 43.63Q517.58 44.13 519.48 44.13L523.83 44.13Q526.93 44.13 529.19 45.13Q531.45 46.13 532.70 47.85Q533.95 49.58 533.95 51.80Q533.95 55.88 530.38 58.23Q526.80 60.58 519.75 60.58Q514.65 60.58 511.86 59.54Q509.08 58.50 507.99 56.59Q506.90 54.67 506.90 52.05L513.90 52.05Q513.90 53.20 514.36 53.94Q514.83 54.67 516.14 55.02Q517.45 55.38 519.95 55.38Q522.48 55.38 523.80 54.98Q525.13 54.58 525.61 53.89Q526.10 53.20 526.10 52.35Q526.10 51.17 525.18 50.45Q524.25 49.73 522.25 49.73L518.02 49.73Q513.73 49.73 511.78 48.14Q509.83 46.55 509.83 44.42Q509.83 42.95 510.61 41.63Q511.40 40.30 512.83 39.40Q510.28 38.05 509.18 36.21Q508.08 34.38 508.08 31.80Q508.08 28.80 509.60 26.64Q511.13 24.47 513.81 23.30Q516.50 22.13 519.95 22.13Q522.93 22.17 525.13 21.71Q527.33 21.25 529.08 20.44Q530.83 19.63 532.43 18.70M520.15 27.25Q518.27 27.25 517.18 28.44Q516.08 29.63 516.08 31.70Q516.08 33.90 517.20 35.08Q518.33 36.25 520.15 36.25Q522.13 36.25 523.16 35.08Q524.20 33.90 524.20 31.60Q524.20 29.38 523.18 28.31Q522.15 27.25 520.15 27.25ZM546.75 25.67Q548 24.02 549.76 23.05Q551.52 22.07 553.55 22.07Q556.98 22.07 559.14 23.80Q561.30 25.52 562.33 28.67Q563.35 31.82 563.35 36.15Q563.35 40.25 562.14 43.46Q560.93 46.67 558.55 48.51Q556.18 50.35 552.73 50.35Q548.55 50.35 546.15 47.10L545.85 49.50L538.85 49.50L538.85 12.40L546.75 11.57L546.75 25.67M550.65 44.60Q552.75 44.60 553.98 42.66Q555.20 40.73 555.20 36.25Q555.20 32.95 554.69 31.14Q554.18 29.32 553.24 28.61Q552.30 27.90 551.05 27.90Q549.73 27.90 548.68 28.72Q547.63 29.55 546.75 30.97L546.75 42.17Q547.50 43.35 548.43 43.98Q549.35 44.60 550.65 44.60ZM575.70 38.52Q575.98 40.70 576.84 42.04Q577.70 43.38 579.05 43.99Q580.40 44.60 582.08 44.60Q583.90 44.60 585.60 44Q587.30 43.40 588.88 42.40L592.05 46.70Q590.18 48.30 587.51 49.33Q584.85 50.35 581.45 50.35Q576.90 50.35 573.83 48.54Q570.75 46.73 569.20 43.55Q567.65 40.38 567.65 36.25Q567.65 32.33 569.15 29.11Q570.65 25.90 573.54 23.99Q576.43 22.07 580.60 22.07Q584.40 22.07 587.19 23.70Q589.98 25.32 591.51 28.38Q593.05 31.43 593.05 35.70Q593.05 36.38 593.01 37.15Q592.98 37.92 592.90 38.52L575.70 38.52M580.60 27.38Q578.48 27.38 577.18 28.90Q575.88 30.43 575.60 33.77L585.35 33.77Q585.33 30.88 584.23 29.13Q583.13 27.38 580.60 27.38ZM608.27 43.52L621.58 43.52L620.83 49.50L598.95 49.50L598.95 43.92L612.13 28.90L600.05 28.90L600.05 22.95L621.33 22.95L621.33 28.50L608.27 43.52ZM635.70 38.52Q635.98 40.70 636.84 42.04Q637.70 43.38 639.05 43.99Q640.40 44.60 642.08 44.60Q643.90 44.60 645.60 44Q647.30 43.40 648.88 42.40L652.05 46.70Q650.18 48.30 647.51 49.33Q644.85 50.35 641.45 50.35Q636.90 50.35 633.83 48.54Q630.75 46.73 629.20 43.55Q627.65 40.38 627.65 36.25Q627.65 32.33 629.15 29.11Q630.65 25.90 633.54 23.99Q636.43 22.07 640.60 22.07Q644.40 22.07 647.19 23.70Q649.98 25.32 651.51 28.38Q653.05 31.43 653.05 35.70Q653.05 36.38 653.01 37.15Q652.98 37.92 652.90 38.52L635.70 38.52M640.60 27.38Q638.48 27.38 637.18 28.90Q635.88 30.43 635.60 33.77L645.35 33.77Q645.33 30.88 644.23 29.13Q643.13 27.38 640.60 27.38Z"/></g></g></svg>